<?xml version="1.0" encoding="utf-8"?>
<!-- Generator: Adobe Illustrator 16.0.0, SVG Export Plug-In . SVG Version: 6.00 Build 0)  -->
<!DOCTYPE svg PUBLIC "-//W3C//DTD SVG 1.1 Basic//EN" "http://www.w3.org/Graphics/SVG/1.1/DTD/svg11-basic.dtd">
<svg version="1.1" baseProfile="basic" id="Logo" xmlns="http://www.w3.org/2000/svg" xmlns:xlink="http://www.w3.org/1999/xlink"
	 x="0px" y="0px" width="654px" height="654px" viewBox="0 0 654 654" xml:space="preserve">
<g>
	<g>
		<g>
			<path fill="#00274C" d="M313.216,2.513C225.828-2.877,147.002,31.271,78.938,104.02C-9.687,198.739-8.007,265.078,16.175,383.88
				c15.849,77.85,62.064,153.018,126.802,206.23c75.246,61.835,163.661,77.758,255.676,45.993
				C500.046,601.114,597.043,500.9,634.537,392.438c40.831-118.23,9.454-225.403-86.116-294.026
				C466.154,39.324,387.021,7.068,313.216,2.513z"/>
			<path fill="#FFFFFF" d="M205.724,310.774h-22.293l-0.028,0.631c-0.179,4.324-2.751,42.257-36.69,42.257
				c-30.332,0-45.727-27.183-45.757-80.796c0.03-53.618,15.425-80.802,45.757-80.802c34.525,0,36.621,40.533,36.69,42.255
				l0.028,0.625h22.293c2.06,0,4.061-0.84,5.494-2.312c1.375-1.415,2.085-3.242,1.986-5.142
				c-0.463-10.52-5.856-62.996-66.807-62.996c-49.256,0-75.288,37.435-75.288,108.254c0,70.967,26.032,108.481,75.288,108.481
				c58.662,0,65.954-47.929,66.797-62.613c0.149-2.029-0.551-3.975-1.971-5.47C209.8,311.639,207.79,310.774,205.724,310.774z"/>
			<path fill="#4FC6E0" d="M529.235,259.977l0.008,0.005l-19.208-8.374c-18.466-8.113-25.013-16.004-25.013-30.177
				c0-18.469,13.508-30.88,33.62-30.88c11.888,0,21.642,2.434,33.549,14.561l0.653,0.668l10.246-9.376
				c5.935-5.509,4.214-10.472,1.739-13.663c-9.996-11.793-26.047-18.268-45.21-18.268c-36.961,0-63.783,24.109-63.783,57.328
				c0,32.667,20.589,46.32,42.82,56.208l19.593,8.746c19.697,8.832,29.074,16.362,29.074,35.309
				c0,25.841-23.352,32.733-37.147,32.733c-11.87,0-25.084-2.544-41.32-20.937l-0.635-0.724l-10.676,9.38
				c-5.486,4.826-5.539,8.972-0.183,15.854c14.695,18.893,36.24,22.858,51.73,22.858c33.497,0,67.412-20.578,67.412-59.896
				C576.506,287.298,557.611,272.192,529.235,259.977z"/>
			<path fill="#4FC6E0" d="M355.183,226.504c0-33.459-27.115-61.807-60.586-61.807c-15.744,0-30.076,6.004-40.852,15.845v-11.498
				H233.59c-6.075,0-8.389,3.962-8.389,8.514v195.248c0,5.495,3.352,8.435,8.292,8.435h20.166c0,0,0-153.544,0-153.554
				c0-20.169,16.358-36.523,36.526-36.523c20.171,0,36.531,16.354,36.531,36.523c0,0.01,0,153.581,0,153.581h20.032
				c5.554,0,8.436-3.085,8.436-8.401C355.183,372.867,355.183,226.699,355.183,226.504z"/>
			<path fill="#FFFFFF" d="M459.293,179.294c1.053-1.305,1.702-2.947,1.702-4.748c0-3.361-2.19-6.181-5.203-7.204
				c-5.83-1.956-12.042-3.027-18.507-3.027c-15.736,0-30.069,6.002-40.846,15.845v-11.5h-20.16c-6.069,0-8.391,3.968-8.391,8.522
				v195.247c0,5.494,3.363,8.434,8.301,8.434h20.16c0,0,0-153.544,0-153.552c0-20.173,16.36-36.529,36.539-36.529
				c5.281,0,10.295,1.146,14.826,3.167l11.646-14.613L459.293,179.294z"/>
		</g>
	</g>
	<g>
		<path fill="#FFFFFF" d="M300.191,584.892v0.09c1.538,0.616,3.516,1.799,3.516,5.192c0,5.527-4.617,7.733-12.743,7.733
			c-10.515,0-12.139-3.698-12.139-7.301c0-2.546,1.277-4.479,3.389-5.36v-0.089h-10.503v-4.748h31.384v4.482H300.191z
			 M282.611,589.199c0,2.725,2.195,3.691,8.57,3.691c5.36,0,8.75-0.701,8.75-3.997c0-3.251-3.348-4.002-8.398-4.002
			C285.866,584.892,282.611,585.553,282.611,589.199z"/>
		<path fill="#FFFFFF" d="M270.039,567.181v-5.274l6.331,4.658v3.259L270.039,567.181z M291.882,571.749h1.366
			c3.166,0,7.204-0.392,7.204-3.945c0-3.393-3.871-3.792-5.271-3.792v-4.479c5.226,0,8.525,3.169,8.525,8.302
			c0,3.878-1.142,8.663-12.086,8.663c-6.196,0-12.795-1.317-12.795-8.745c0-6.592,3.953-8.354,10.556-8.354h2.5V571.749z
			 M288.627,564.146h-1.269c-2.993,0-5.278,0.975-5.278,3.658c0,3.023,2.986,3.945,6.062,3.945h0.485V564.146z"/>
		<path fill="#FFFFFF" d="M279.445,555.49v-4.483h2.896v-0.086c-2.105-0.974-3.516-2.725-3.516-5.322
			c0-5.409,4.621-7.604,12.751-7.604c9.932,0,12.131,4.039,12.131,7.293c0,2.55-1.276,4.487-3.382,5.372v0.082h10.5v4.748H279.445z
			 M299.93,546.961c0-2.718-2.023-3.957-8.57-3.957c-5.368,0-8.749,0.706-8.749,4.002c0,3.251,3.337,4.001,8.391,4.001
			C296.671,551.007,299.93,550.302,299.93,546.961z"/>
		<path fill="#FFFFFF" d="M298.168,518.824c0.881,0,1.672-0.519,1.672-1.221c0-0.313-0.048-0.623-0.138-0.795h3.08
			c0.261,0.571,0.575,1.407,0.575,2.329c0,2.105-0.836,3.871-3.12,4.005v0.09c2.329,1.27,3.471,3.117,3.471,5.883
			c0,3.781-2.116,6.155-6.637,6.155c-5.278,0-6.375-2.292-7.428-5.491l-1.016-3.699c-0.485-1.713-0.963-2.77-3.031-2.77
			c-2.15,0-3.516,0.747-3.516,3.255c0,3.169,2.24,3.609,4.531,3.609v4.479c-5.017,0-7.786-2.061-7.786-8.305
			c0-4.178,1.624-7.525,5.808-7.525H298.168z M290.606,523.311c0.971,1.235,1.538,3.871,2.199,5.278
			c0.661,1.362,2.068,1.934,3.826,1.934c1.979,0,3.561-0.967,3.561-2.945c0-2.852-2.158-4.267-5.629-4.267H290.606z"/>
		<path fill="#FFFFFF" d="M286.343,503.8h-0.616c-1.885,0-3.647,0.657-3.647,3.121c0,1.889,0.877,3.382,3.076,3.382
			c1.852,0,2.598-0.836,3.471-3.337l1.06-3.031c1.187-3.516,3.076-5.144,6.805-5.144c5.058,0,7.215,3.688,7.215,8.48
			c0,5.979-2.77,7.779-7.338,7.779h-0.881v-4.218h0.747c2.725,0,4.218-0.964,4.218-3.695c0-2.591-1.321-3.867-3.471-3.867
			c-1.762,0-2.896,0.926-3.472,2.598l-1.366,3.867c-1.224,3.561-3.031,5.05-6.808,5.05c-4.445,0-6.51-3.206-6.51-8.081
			c0-6.024,3.516-7.391,6.461-7.391h1.056V503.8z"/>
		<path fill="#FFFFFF" d="M286.343,485.077h-0.616c-1.885,0-3.647,0.657-3.647,3.121c0,1.889,0.877,3.382,3.076,3.382
			c1.852,0,2.598-0.837,3.471-3.338l1.06-3.038c1.187-3.509,3.076-5.136,6.805-5.136c5.058,0,7.215,3.688,7.215,8.48
			c0,5.979-2.77,7.778-7.338,7.778h-0.881v-4.218h0.747c2.725,0,4.218-0.97,4.218-3.695c0-2.59-1.321-3.867-3.471-3.867
			c-1.762,0-2.896,0.926-3.472,2.599l-1.366,3.867c-1.224,3.553-3.031,5.054-6.808,5.054c-4.445,0-6.51-3.21-6.51-8.085
			c0-6.024,3.516-7.391,6.461-7.391h1.056V485.077z"/>
		<path fill="#FFFFFF" d="M291.882,472.461h1.366c3.166,0,7.204-0.396,7.204-3.956c0-3.382-3.871-3.778-5.271-3.778v-4.486
			c5.226,0,8.525,3.165,8.525,8.309c0,3.867-1.142,8.66-12.086,8.66c-6.196,0-12.795-1.321-12.795-8.749
			c0-6.592,3.953-8.354,10.556-8.354h2.5V472.461z M288.627,464.854h-1.269c-2.993,0-5.278,0.971-5.278,3.651
			c0,3.03,2.986,3.956,6.062,3.956h0.485V464.854z"/>
		<path fill="#FFFFFF" d="M279.445,456.194v-4.748h3.684v-0.082c-2.631-1.061-4.304-2.814-4.304-5.494
			c0-0.53,0.09-0.837,0.179-1.143h4.837c-0.089,0.351-0.269,1.18-0.269,1.971c0,2.157,0.97,4.748,5.368,4.748h14.154v4.748H279.445z
			"/>
		<path fill="#FFFFFF" d="M271.711,432.753v-2.635h31.384v2.635H271.711z"/>
		<path fill="#FFFFFF" d="M295.354,410.47c4.972,0.396,8.264,3.128,8.264,7.518c0,4.927-3.427,7.823-12.221,7.823
			c-8.089,0-12.176-2.896-12.176-8.04c0-5.188,3.557-7.518,11.339-7.518h0.971v12.751h1.094c6.726,0,8.794-2.374,8.794-4.972
			c0-2.771-1.979-4.479-6.065-4.92V410.47z M289.337,413.067c-5.808,0.082-7.913,1.71-7.913,4.965c0,3.254,2.105,4.882,7.913,4.972
			V413.067z"/>
		<path fill="#FFFFFF" d="M291.487,402.43c-1.28,3.299-3.21,4.479-5.539,4.479c-4.793,0-6.726-2.985-6.726-6.942
			c0-4.397,2.25-6.42,6.506-6.42h0.661v2.643h-0.661c-3.027,0-4.304,1.403-4.304,3.822c0,3.075,1.624,4.263,3.953,4.263
			c1.631,0,2.9-0.53,3.916-3.165l1.448-3.822c1.187-3.166,3.382-4.353,5.931-4.353c4.005,0,6.947,2.284,6.947,7.211
			c0,4.793-1.979,7.167-7.249,7.167h-0.747v-2.643h0.612c3.426,0,5.185-1.493,5.185-4.479c0-2.814-1.579-4.621-4.169-4.621
			c-2.068,0-3.389,0.837-4.315,3.166L291.487,402.43z"/>
		<path fill="#FFFFFF" d="M282.958,378.001v3.296h-3.513v-3.296h-2.202c-4.479,0-5.89-2.15-5.89-6.022
			c0-1.006,0.041-1.889,0.131-2.593h3.654v1.318c0,1.76,0.653,2.549,2.24,2.549h2.068v-3.867h3.513v3.867h20.137v4.748H282.958z"/>
		<path fill="#FFFFFF" d="M279.445,367.232v-4.748h3.684v-0.086c-2.631-1.06-4.304-2.814-4.304-5.49c0-0.532,0.09-0.838,0.179-1.146
			h4.837c-0.089,0.353-0.269,1.188-0.269,1.975c0,2.154,0.97,4.748,5.368,4.748h14.154v4.748H279.445z"/>
		<path fill="#FFFFFF" d="M278.826,345.52c0-6.905,5.099-8.839,12.445-8.839c7.338,0,12.437,2.243,12.437,8.839
			c0,6.549-5.099,8.789-12.437,8.789C283.924,354.309,278.826,352.38,278.826,345.52z M300.191,345.52
			c0-3.47-2.908-4.091-8.921-4.091c-5.233,0-8.929,0.621-8.929,4.091c0,3.429,3.695,4.041,8.929,4.041
			C297.284,349.561,300.191,348.948,300.191,345.52z"/>
		<path fill="#FFFFFF" d="M279.445,333.039v-4.488h2.77v-0.133c-2.112-1.181-3.389-3.428-3.389-6.063
			c0-3.604,1.624-5.888,6.42-5.888h17.849v4.748h-16.222c-3.076,0-4.263,0.917-4.263,3.291c0,1.938,1.538,3.786,4.613,3.786h15.871
			v4.748H279.445z"/>
		<path fill="#FFFFFF" d="M279.445,314.003v-3.249h-6.726v-4.748h6.726v-3.869h3.513v3.869h14.113c1.84,0,2.508-0.53,2.508-2.157
			c0-0.702-0.048-1.275-0.138-1.711h3.52c0.261,1.009,0.396,2.329,0.396,3.82c0,3.215-0.881,4.796-5.718,4.796h-14.68v3.249H279.445
			z"/>
		<path fill="#FFFFFF" d="M271.353,299.453v-4.748h4.748v4.748H271.353z M279.445,299.453v-4.748h23.65v4.748H279.445z"/>
		<path fill="#FFFFFF" d="M270.039,286.97v-5.269l6.331-2.643v3.253L270.039,286.97z M291.882,285.829h1.366
			c3.166,0,7.204-0.396,7.204-3.958c0-3.38-3.871-3.777-5.271-3.777v-4.487c5.226,0,8.525,3.167,8.525,8.309
			c0,3.869-1.142,8.662-12.086,8.662c-6.196,0-12.795-1.323-12.795-8.748c0-6.596,3.953-8.35,10.556-8.35h2.5V285.829z
			 M288.627,278.222h-1.269c-2.993,0-5.278,0.97-5.278,3.648c0,3.035,2.986,3.958,6.062,3.958h0.485V278.222z"/>
		<path fill="#FFFFFF" d="M279.445,269.563v-4.741h3.684v-0.089c-2.631-1.058-4.304-2.816-4.304-5.497
			c0-0.53,0.09-0.836,0.179-1.144h4.837c-0.089,0.353-0.269,1.189-0.269,1.982c0,2.15,0.97,4.748,5.368,4.748h14.154v4.741H279.445z
			"/>
		<path fill="#FFFFFF" d="M291.882,251.89h1.366c3.166,0,7.204-0.396,7.204-3.955c0-3.384-3.871-3.779-5.271-3.779v-4.487
			c5.226,0,8.525,3.166,8.525,8.311c0,3.865-1.142,8.658-12.086,8.658c-6.196,0-12.795-1.32-12.795-8.748
			c0-6.592,3.953-8.355,10.556-8.355h2.5V251.89z M288.627,244.283h-1.269c-2.993,0-5.278,0.97-5.278,3.652
			c0,3.029,2.986,3.955,6.062,3.955h0.485V244.283z"/>
		<path fill="#FFFFFF" d="M286.343,225.426h-0.616c-1.885,0-3.647,0.657-3.647,3.121c0,1.892,0.877,3.387,3.076,3.387
			c1.852,0,2.598-0.836,3.471-3.343l1.06-3.031c1.187-3.514,3.076-5.144,6.805-5.144c5.058,0,7.215,3.692,7.215,8.488
			c0,5.973-2.77,7.777-7.338,7.777h-0.881v-4.224h0.747c2.725,0,4.218-0.961,4.218-3.689c0-2.596-1.321-3.863-3.471-3.863
			c-1.762,0-2.896,0.916-3.472,2.588l-1.366,3.869c-1.224,3.559-3.031,5.054-6.808,5.054c-4.445,0-6.51-3.212-6.51-8.087
			c0-6.022,3.516-7.387,6.461-7.387h1.056V225.426z"/>
	</g>
</g>
</svg>
